# xmcd CD database file
#
# Track frame offsets:
#	152
#	24805
#	46985
#	95929
#	116581
#	143198
#	160717
#	191513
#	207865
#	228650
#	249712
#	272423
#
# Disc length: 3760 seconds
#
# Revision: 1
# Processed by: cddbd v1.5.2PL0 Copyright (c) Steve Scherf et al.
# Submitted via: CDex 1.70beta2
#
DISCID=a20eae0c
DTITLE=Ron McCroby with the Hans Mantel Trio - TwoLips From Holland
DYEAR=2001
DGENRE=Jazz
TTITLE0=When You Wish Upon A Star
TTITLE1=Sweet Georgia Brown
TTITLE2=Body And Soul
TTITLE3=Whistle While You Work
TTITLE4=The Shadow Of Your Smile
TTITLE5=Au Privave
TTITLE6=All Blues
TTITLE7=One Note Samba
TTITLE8=Joy Spring
TTITLE9=A Child Is Born
TTITLE10=Scrapple From The Apple
TTITLE11=Sonata In F
EXTD=YEAR: 2001
EXTT0=
EXTT1=
EXTT2=
EXTT3=
EXTT4=
EXTT5=
EXTT6=
EXTT7=
EXTT8=
EXTT9=
EXTT10=
EXTT11=
PLAYORDER=
